{"accessors" : [{"bufferView" : 0, "byteOffset" : 0, "componentType" : 5123, "count" : 2316, "type" : "SCALAR", "max" : [2315], "min" : [0]}, {"bufferView" : 1, "byteOffset" : 0, "componentType" : 5126, "count" : 2316, "type" : "VEC3", "max" : [12.60806941986084, 40.933509826660156, 0.20000000298023224], "min" : [6.264103889465332, 31.577102661132812, 0], "name" : "POSITION"}, {"bufferView" : 1, "byteOffset" : 12, "componentType" : 5126, "count" : 2316, "type" : "VEC3", "max" : [0.9999722838401794, 0.9997474551200867, 1.0000044107437134], "min" : [-0.9995312094688416, -0.999987781047821, -1.0000044107437134], "name" : "NORMAL"}, {"bufferView" : 1, "byteOffset" : 24, "componentType" : 5126, "count" : 2316, "type" : "VEC2", "max" : [7.040919303894043, 4.837907314300537], "min" : [-3.2391910552978516, -4.518500328063965], "name" : "TEXCOORD_0"}, {"bufferView" : 0, "byteOffset" : 4632, "componentType" : 5123, "count" : 2466, "type" : "SCALAR", "max" : [2465], "min" : [0]}, {"bufferView" : 2, "byteOffset" : 0, "componentType" : 5126, "count" : 2466, "type" : "VEC3", "max" : [9.354660987854004, 39.29317855834961, 3.071622133255005], "min" : [9.154661178588867, 31.532123565673828, -1.4059354066848755], "name" : "POSITION"}, {"bufferView" : 2, "byteOffset" : 12, "componentType" : 5126, "count" : 2466, "type" : "VEC3", "max" : [1.0000044107437134, 0.9999926686286926, 0.9997817277908325], "min" : [-1.0000044107437134, -0.9993810057640076, -0.9999982714653015], "name" : "NORMAL"}, {"bufferView" : 2, "byteOffset" : 24, "componentType" : 5126, "count" : 2466, "type" : "VEC2", "max" : [4.19454288482666, 4.130145072937012], "min" : [-5.589609622955322, -3.781175374984741], "name" : "TEXCOORD_0"}, {"bufferView" : 0, "byteOffset" : 9564, "componentType" : 5123, "count" : 2322, "type" : "SCALAR", "max" : [2321], "min" : [0]}, {"bufferView" : 3, "byteOffset" : 0, "componentType" : 5126, "count" : 2322, "type" : "VEC3", "max" : [11.786627769470215, 40.43918228149414, 4.492140769958496], "min" : [11.586627006530762, 31.467998504638672, -1.912687063217163], "name" : "POSITION"}, {"bufferView" : 3, "byteOffset" : 12, "componentType" : 5126, "count" : 2322, "type" : "VEC3", "max" : [1.0000044107437134, 0.9999358654022217, 1.0000038146972656], "min" : [-1.0000044107437134, -0.8820342421531677, -0.9993807077407837], "name" : "NORMAL"}, {"bufferView" : 3, "byteOffset" : 24, "componentType" : 5126, "count" : 2322, "type" : "VEC2", "max" : [7.155743598937988, 4.528344631195068], "min" : [-7.31280517578125, -4.441059112548828], "name" : "TEXCOORD_0"}, {"bufferView" : 0, "byteOffset" : 14208, "componentType" : 5123, "count" : 2256, "type" : "SCALAR", "max" : [2255], "min" : [0]}, {"bufferView" : 4, "byteOffset" : 0, "componentType" : 5126, "count" : 2256, "type" : "VEC3", "max" : [14.8303804397583, 40.29194641113281, 2.214246988296509], "min" : [8.889967918395996, 31.498884201049805, 2.014246940612793], "name" : "POSITION"}, {"bufferView" : 4, "byteOffset" : 12, "componentType" : 5126, "count" : 2256, "type" : "VEC3", "max" : [0.9996490478515625, 0.9999948143959045, 1.0000044107437134], "min" : [-1.0000039339065552, -1.0000041723251343, -1.0000044107437134], "name" : "NORMAL"}, {"bufferView" : 4, "byteOffset" : 24, "componentType" : 5126, "count" : 2256, "type" : "VEC2", "max" : [5.83859920501709, 4.4254231452941895], "min" : [-3.123840808868408, -4.3676371574401855], "name" : "TEXCOORD_0"}], "asset" : {"generator" : "Aspose.3D 21.11", "version" : "2.0"}, "buffers" : [{"uri" : "data:application/octet-stream;base64,", "byteLength" : 318260}], "bufferViews" : [{"buffer" : 0, "byteOffset" : 0, "byteLength" : 18720, "target" : 34963}, {"buffer" : 0, "byteOffset" : 18724, "byteLength" : 74112, "byteStride" : 32, "target" : 34962}, {"buffer" : 0, "byteOffset" : 92840, "byteLength" : 78912, "byteStride" : 32, "target" : 34962}, {"buffer" : 0, "byteOffset" : 171756, "byteLength" : 74304, "byteStride" : 32, "target" : 34962}, {"buffer" : 0, "byteOffset" : 246064, "byteLength" : 72192, "byteStride" : 32, "target" : 34962}], "materials" : [{"name" : "", "pbrMetallicRoughness" : {"baseColorFactor" : [0.6274509803921569, 0.6274509803921569, 0.6274509803921569, 1], "metallicFactor" : 0, "roughnessFactor" : 0}, "emissiveFactor" : [0, 0, 0], "alphaMode" : "OPAQUE", "doubleSided" : false}, {"name" : "", "pbrMetallicRoughness" : {"baseColorFactor" : [0.6274509803921569, 0.6274509803921569, 0.6274509803921569, 1], "metallicFactor" : 0, "roughnessFactor" : 0}, "emissiveFactor" : [0, 0, 0], "alphaMode" : "OPAQUE", "doubleSided" : false}, {"name" : "", "pbrMetallicRoughness" : {"baseColorFactor" : [0.6274509803921569, 0.6274509803921569, 0.6274509803921569, 1], "metallicFactor" : 0, "roughnessFactor" : 0}, "emissiveFactor" : [0, 0, 0], "alphaMode" : "OPAQUE", "doubleSided" : false}, {"name" : "", "pbrMetallicRoughness" : {"baseColorFactor" : [0.6274509803921569, 0.6274509803921569, 0.6274509803921569, 1], "metallicFactor" : 0, "roughnessFactor" : 0}, "emissiveFactor" : [0, 0, 0], "alphaMode" : "OPAQUE", "doubleSided" : false}], "meshes" : [{"primitives" : [{"attributes" : {"POSITION" : 1, "NORMAL" : 2, "TEXCOORD_0" : 3}, "indices" : 0, "material" : 0, "mode" : 4}], "name" : "Body16"}, {"primitives" : [{"attributes" : {"POSITION" : 5, "NORMAL" : 6, "TEXCOORD_0" : 7}, "indices" : 4, "material" : 1, "mode" : 4}], "name" : "Body17"}, {"primitives" : [{"attributes" : {"POSITION" : 9, "NORMAL" : 10, "TEXCOORD_0" : 11}, "indices" : 8, "material" : 2, "mode" : 4}], "name" : "Body24"}, {"primitives" : [{"attributes" : {"POSITION" : 13, "NORMAL" : 14, "TEXCOORD_0" : 15}, "indices" : 12, "material" : 3, "mode" : 4}], "name" : "Body25"}], "nodes" : [{"matrix" : [10, 0, 0, 0, 0, 10, 0, 0, 0, 0, 10, 0, 0, 0, 0, 1], "mesh" : 0, "name" : "Body16"}, {"matrix" : [10, 0, 0, 0, 0, 10, 0, 0, 0, 0, 10, 0, 0, 0, 0, 1], "mesh" : 1, "name" : "Body17"}, {"matrix" : [10, 0, 0, 0, 0, 10, 0, 0, 0, 0, 10, 0, 0, 0, 0, 1], "mesh" : 2, "name" : "Body24"}, {"matrix" : [10, 0, 0, 0, 0, 10, 0, 0, 0, 0, 10, 0, 0, 0, 0, 1], "mesh" : 3, "name" : "Body25"}, {"children" : [0, 1, 2, 3], "name" : "Sculpture+models v8"}], "scene" : 0, "scenes" : [{"nodes" : [4]}]}