{"accessors" : [{"bufferView" : 0, "byteOffset" : 0, "componentType" : 5123, "count" : 8046, "type" : "SCALAR", "max" : [8045], "min" : [0]}, {"bufferView" : 1, "byteOffset" : 0, "componentType" : 5126, "count" : 8046, "type" : "VEC3", "max" : [1.5095933675765991, 0.8261719942092896, 2.195070743560791], "min" : [-1.505171537399292, -2.129821300506592, -1.835580587387085], "name" : "POSITION"}, {"bufferView" : 1, "byteOffset" : 12, "componentType" : 5126, "count" : 8046, "type" : "VEC3", "max" : [0.9998667240142822, 0.9980657696723938, 0.9985167980194092], "min" : [-0.9989955425262451, -0.9988644123077393, -0.99737548828125], "name" : "NORMAL"}], "asset" : {"generator" : "Aspose.3D 21.11", "version" : "2.0"}, "buffers" : [{"uri" : "data:application/octet-stream;base64,", "byteLength" : 209204}], "bufferViews" : [{"buffer" : 0, "byteOffset" : 0, "byteLength" : 16092, "target" : 34963}, {"buffer" : 0, "byteOffset" : 16096, "byteLength" : 193104, "byteStride" : 24, "target" : 34962}], "meshes" : [{"primitives" : [{"attributes" : {"POSITION" : 1, "NORMAL" : 2}, "indices" : 0, "mode" : 4}], "name" : ""}], "nodes" : [{"mesh" : 0, "name" : ""}], "scene" : 0, "scenes" : [{"nodes" : [0]}]}